<?xml version="1.0" encoding="UTF-8" standalone="no"?>
<!DOCTYPE svg PUBLIC "-//W3C//DTD SVG 1.1//EN" "http://www.w3.org/Graphics/SVG/1.1/DTD/svg11.dtd">
<svg width="100%" height="100%" viewBox="0 0 1024 1024" version="1.1" xmlns="http://www.w3.org/2000/svg" xmlns:xlink="http://www.w3.org/1999/xlink" xml:space="preserve" xmlns:serif="http://www.serif.com/" style="fill-rule:evenodd;clip-rule:evenodd;stroke-linejoin:round;stroke-miterlimit:2;">
    <g transform="matrix(15.8394,0,0,15.8394,-277.604,-280.778)">
        <path d="M62.976,22.365C62.639,21.93 61.923,21.67 61.385,21.786L24.914,29.651C24.376,29.767 23.795,30.29 23.623,30.811L18.078,47.593C17.906,48.114 17.929,48.961 18.13,49.473L26.582,70.994C26.783,71.506 27.389,72.013 27.928,72.12L58.658,78.229C59.197,78.336 59.902,78.06 60.224,77.614L81.649,47.983C81.971,47.537 81.959,46.817 81.622,46.382L62.976,22.365ZM57.883,72.913C57.888,73.463 57.758,73.483 57.597,72.957L52.053,54.943C51.892,54.417 51.329,53.854 50.804,53.691L28.617,46.825C28.092,46.662 28.109,46.582 28.655,46.647L52.088,49.437C52.634,49.502 53.243,49.135 53.442,48.623L59.346,33.368C59.545,32.855 59.643,32.881 59.565,33.426L57.366,48.725C57.288,49.27 57.666,49.633 58.207,49.532L68.662,47.583C69.203,47.481 69.252,47.617 68.77,47.884L58.616,53.504C58.135,53.771 57.744,54.439 57.749,54.988L57.883,72.913Z" style="fill:url(#_Linear1);fill-rule:nonzero;"/>
    </g>
    <g transform="matrix(15.8394,0,0,15.8394,-277.71,-280.458)">
        <path d="M57.883,72.913C57.888,73.463 57.758,73.483 57.597,72.957L52.053,54.943C51.892,54.417 51.329,53.854 50.804,53.691L28.617,46.825C28.092,46.662 28.109,46.582 28.655,46.647L52.088,49.437C52.634,49.502 53.243,49.135 53.442,48.623L59.346,33.368C59.545,32.855 59.643,32.881 59.565,33.426L57.366,48.725C57.288,49.27 57.666,49.633 58.207,49.532L68.662,47.583C69.203,47.481 69.252,47.617 68.77,47.884L58.616,53.504C58.135,53.771 57.744,54.439 57.749,54.988L57.883,72.913Z" style="fill:white;fill-rule:nonzero;"/>
    </g>
    <defs>
        <linearGradient id="_Linear1" x1="0" y1="0" x2="1" y2="0" gradientUnits="userSpaceOnUse" gradientTransform="matrix(57.9313,27.0138,-27.0138,57.9313,7.08426,27.3112)"><stop offset="0" style="stop-color:rgb(121,66,162);stop-opacity:1"/><stop offset="1" style="stop-color:rgb(89,188,200);stop-opacity:1"/></linearGradient>
    </defs>
</svg>
